<svg xmlns="http://www.w3.org/2000/svg" viewBox="0 0 100 100" preserveAspectRatio="xMidYMid" width="274" height="274" style="shape-rendering: auto; display: block; background: rgb(255, 255, 255);" xmlns:xlink="http://www.w3.org/1999/xlink"><g><g transform="rotate(0 50 50)">
  <rect fill="#343434" height="15" width="6" ry="7.5" rx="3" y="22.5" x="47">
    <animate repeatCount="indefinite" begin="-0.5165289256198348s" dur="0.5681818181818182s" keyTimes="0;1" values="1;0" attributeName="opacity"></animate>
  </rect>
</g><g transform="rotate(32.72727272727273 50 50)">
  <rect fill="#343434" height="15" width="6" ry="7.5" rx="3" y="22.5" x="47">
    <animate repeatCount="indefinite" begin="-0.46487603305785125s" dur="0.5681818181818182s" keyTimes="0;1" values="1;0" attributeName="opacity"></animate>
  </rect>
</g><g transform="rotate(65.45454545454545 50 50)">
  <rect fill="#343434" height="15" width="6" ry="7.5" rx="3" y="22.5" x="47">
    <animate repeatCount="indefinite" begin="-0.4132231404958678s" dur="0.5681818181818182s" keyTimes="0;1" values="1;0" attributeName="opacity"></animate>
  </rect>
</g><g transform="rotate(98.18181818181819 50 50)">
  <rect fill="#343434" height="15" width="6" ry="7.5" rx="3" y="22.5" x="47">
    <animate repeatCount="indefinite" begin="-0.3615702479338843s" dur="0.5681818181818182s" keyTimes="0;1" values="1;0" attributeName="opacity"></animate>
  </rect>
</g><g transform="rotate(130.9090909090909 50 50)">
  <rect fill="#343434" height="15" width="6" ry="7.5" rx="3" y="22.5" x="47">
    <animate repeatCount="indefinite" begin="-0.30991735537190085s" dur="0.5681818181818182s" keyTimes="0;1" values="1;0" attributeName="opacity"></animate>
  </rect>
</g><g transform="rotate(163.63636363636363 50 50)">
  <rect fill="#343434" height="15" width="6" ry="7.5" rx="3" y="22.5" x="47">
    <animate repeatCount="indefinite" begin="-0.2582644628099174s" dur="0.5681818181818182s" keyTimes="0;1" values="1;0" attributeName="opacity"></animate>
  </rect>
</g><g transform="rotate(196.36363636363637 50 50)">
  <rect fill="#343434" height="15" width="6" ry="7.5" rx="3" y="22.5" x="47">
    <animate repeatCount="indefinite" begin="-0.2066115702479339s" dur="0.5681818181818182s" keyTimes="0;1" values="1;0" attributeName="opacity"></animate>
  </rect>
</g><g transform="rotate(229.0909090909091 50 50)">
  <rect fill="#343434" height="15" width="6" ry="7.5" rx="3" y="22.5" x="47">
    <animate repeatCount="indefinite" begin="-0.15495867768595042s" dur="0.5681818181818182s" keyTimes="0;1" values="1;0" attributeName="opacity"></animate>
  </rect>
</g><g transform="rotate(261.8181818181818 50 50)">
  <rect fill="#343434" height="15" width="6" ry="7.5" rx="3" y="22.5" x="47">
    <animate repeatCount="indefinite" begin="-0.10330578512396695s" dur="0.5681818181818182s" keyTimes="0;1" values="1;0" attributeName="opacity"></animate>
  </rect>
</g><g transform="rotate(294.54545454545456 50 50)">
  <rect fill="#343434" height="15" width="6" ry="7.5" rx="3" y="22.5" x="47">
    <animate repeatCount="indefinite" begin="-0.05165289256198347s" dur="0.5681818181818182s" keyTimes="0;1" values="1;0" attributeName="opacity"></animate>
  </rect>
</g><g transform="rotate(327.27272727272725 50 50)">
  <rect fill="#343434" height="15" width="6" ry="7.5" rx="3" y="22.5" x="47">
    <animate repeatCount="indefinite" begin="0s" dur="0.5681818181818182s" keyTimes="0;1" values="1;0" attributeName="opacity"></animate>
  </rect>
</g><g></g></g><!-- [ldio] generated by https://loading.io --></svg>